<?xml version="1.0" encoding="UTF-8"?>
<svg width="240px" height="69px" viewBox="0 0 240 69" version="1.1" xmlns="http://www.w3.org/2000/svg" xmlns:xlink="http://www.w3.org/1999/xlink">
    <!-- Generator: Sketch 49 (51002) - http://www.bohemiancoding.com/sketch -->
    <title>awesome</title>
    <desc>Created with Sketch.</desc>
    <defs>
        <linearGradient x1="7.04637852%" y1="13.0171327%" x2="74.1419545%" y2="107.691172%" id="linearGradient-1">
            <stop stop-color="#FF0065" offset="0%"></stop>
            <stop stop-color="#EA52E9" offset="100%"></stop>
        </linearGradient>
    </defs>
    <g id="awesome" stroke="none" stroke-width="1" fill="none" fill-rule="evenodd">
        <text font-family="AvenirNext-UltraLight, Avenir Next" font-size="24" font-weight="200" fill="#878B94">
            <tspan x="66" y="24">awesome</tspan>
        </text>
        <text id="React-Native" font-family="AvenirNext-Regular, Avenir Next" font-size="36" font-weight="normal" letter-spacing="-3.4" fill="#878B94">
            <tspan x="65" y="56">Re</tspan>
            <tspan x="99.708" y="56" letter-spacing="-3.6">a</tspan>
            <tspan x="115.332" y="56" letter-spacing="0.1">ct</tspan>
            <tspan x="144.944" y="56" letter-spacing="-1"> </tspan>
            <tspan x="152.944" y="56" letter-spacing="-3.7">N</tspan>
            <tspan x="176.748" y="56" letter-spacing="-2.7">ati</tspan>
            <tspan x="207.924" y="56">ve</tspan>
        </text>
        <rect id="Rectangle" fill="url(#linearGradient-1)" x="0" y="6" width="55" height="55" rx="11"></rect>
        <g id="React-icon" transform="translate(9.000000, 17.000000)" fill="#FFFFFF" fill-rule="nonzero">
            <path d="M38,17.0038911 C38,14.4747082 34.8475336,12.077821 30.0142682,10.5914397 C31.1296372,5.64202335 30.6339177,1.70428016 28.4496535,0.443579767 C27.9461883,0.147859922 27.3575214,0.00778210117 26.7146351,0.00778210117 L26.7146351,1.74319066 C27.0709336,1.74319066 27.3575214,1.81322957 27.5976355,1.94552529 C28.6510395,2.55252918 29.108031,4.86381323 28.7517326,7.83657588 C28.6665308,8.56809339 28.5271097,9.3385214 28.3567061,10.1245136 C26.838565,9.75097276 25.1810029,9.46303502 23.4382389,9.27626459 C22.3925805,7.83657588 21.308194,6.52918288 20.216062,5.38521401 C22.7411333,3.02723735 25.1112923,1.73540856 26.7223808,1.73540856 L26.7223808,0 C26.7223808,0 26.7223808,0 26.7223808,0 C24.5923359,0 21.8039136,1.52529183 18.9845088,4.17120623 C16.165104,1.54085603 13.3766816,0.0311284047 11.2466368,0.0311284047 L11.2466368,1.76653696 C12.8499796,1.76653696 15.2278842,3.05058366 17.7529556,5.39299611 C16.6685691,6.53696498 15.5841826,7.83657588 14.5540155,9.27626459 C12.8035059,9.46303502 11.1459437,9.75097276 9.62780269,10.1322957 C9.44965349,9.3540856 9.31797799,8.59922179 9.22503057,7.87548638 C8.86098655,4.90272374 9.31023237,2.59143969 10.3558907,1.9766537 C10.5882593,1.83657588 10.8903384,1.77431907 11.2466368,1.77431907 L11.2466368,0.0389105058 C11.2466368,0.0389105058 11.2466368,0.0389105058 11.2466368,0.0389105058 C10.5960049,0.0389105058 10.007338,0.178988327 9.49612719,0.474708171 C7.31960864,1.73540856 6.83163473,5.66536965 7.95474929,10.5992218 C3.13697513,12.0933852 0,14.4824903 0,17.0038911 C0,19.5330739 3.15246637,21.9299611 7.98573176,23.4163424 C6.87036282,28.3657588 7.36608235,32.3035019 9.55034651,33.5642023 C10.0538117,33.8599222 10.6424786,34 11.2931105,34 C13.4231553,34 16.2115777,32.4747082 19.0309825,29.8287938 C21.8503873,32.459144 24.6388096,33.9688716 26.7688545,33.9688716 C27.4194863,33.9688716 28.0081533,33.8287938 28.519364,33.5330739 C30.6958826,32.2723735 31.1838565,28.3424125 30.0607419,23.4085603 C34.8630249,21.922179 38,19.5252918 38,17.0038911 Z M27.9152059,11.8132296 C27.628618,12.8171206 27.2723196,13.8521401 26.8695475,14.8871595 C26.5519772,14.2645914 26.2189156,13.6420233 25.8548716,13.0194553 C25.4985732,12.3968872 25.1190379,11.7898833 24.7395026,11.1984436 C25.8393804,11.3618677 26.90053,11.5642023 27.9152059,11.8132296 Z M24.367713,20.1011673 C23.7635548,21.151751 23.1439054,22.1478599 22.5010192,23.07393 C21.3469221,23.1750973 20.1773339,23.229572 19,23.229572 C17.8304117,23.229572 16.6608235,23.1750973 15.5144721,23.0817121 C14.8715858,22.155642 14.2441908,21.1673152 13.6400326,20.1245136 C13.0513657,19.1050584 12.5169181,18.0700389 12.0289442,17.0272374 C12.5091724,15.9844358 13.0513657,14.9416342 13.632287,13.922179 C14.2364452,12.8715953 14.8560946,11.8754864 15.4989808,10.9494163 C16.6530779,10.848249 17.8226661,10.7937743 19,10.7937743 C20.1695883,10.7937743 21.3391765,10.848249 22.4855279,10.9416342 C23.1284142,11.8677043 23.7558092,12.8560311 24.3599674,13.8988327 C24.9486343,14.9182879 25.4830819,15.9533074 25.9710558,16.9961089 C25.4830819,18.0389105 24.9486343,19.0817121 24.367713,20.1011673 Z M26.8695475,19.0894942 C27.2878108,20.1322957 27.6441093,21.1750973 27.9384427,22.1867704 C26.9237668,22.4357977 25.8548716,22.6459144 24.7472483,22.8093385 C25.1267835,22.2101167 25.5063188,21.5953307 25.8626172,20.9649805 C26.2189156,20.3424125 26.5519772,19.7120623 26.8695475,19.0894942 Z M19.0154912,27.3929961 C18.2951488,26.6459144 17.5748064,25.8132296 16.8622095,24.9027237 C17.5593151,24.9338521 18.2719119,24.9571984 18.9922544,24.9571984 C19.7203424,24.9571984 20.4406849,24.9416342 21.1455361,24.9027237 C20.4484305,25.8132296 19.7280881,26.6459144 19.0154912,27.3929961 Z M13.2527517,22.8093385 C12.152874,22.6459144 11.0917244,22.4435798 10.0770485,22.1945525 C10.3636364,21.1906615 10.7199348,20.155642 11.1227069,19.1206226 C11.4402772,19.7431907 11.7733388,20.3657588 12.1373828,20.9883268 C12.5014268,21.6108949 12.8732165,22.2178988 13.2527517,22.8093385 Z M18.9767631,6.61478599 C19.6971056,7.3618677 20.417448,8.19455253 21.1300448,9.10505837 C20.4329393,9.07392996 19.7203424,9.05058366 19,9.05058366 C18.2719119,9.05058366 17.5515695,9.06614786 16.8467183,9.10505837 C17.5438239,8.19455253 18.2641663,7.3618677 18.9767631,6.61478599 Z M13.2450061,11.1984436 C12.8654709,11.7976654 12.4859356,12.4124514 12.1296372,13.0428016 C11.7733388,13.6653696 11.4402772,14.2879377 11.1227069,14.9105058 C10.7044435,13.8677043 10.3481451,12.8249027 10.0538117,11.8132296 C11.0684876,11.5719844 12.1373828,11.3618677 13.2450061,11.1984436 Z M6.23522218,20.9416342 C3.49327354,19.766537 1.71952711,18.2256809 1.71952711,17.0038911 C1.71952711,15.7821012 3.49327354,14.233463 6.23522218,13.0661479 C6.90134529,12.7782101 7.62943335,12.5214008 8.38075826,12.2801556 C8.82225846,13.8054475 9.40317978,15.3929961 10.1235222,17.0194553 C9.4109254,18.6381323 8.83774969,20.2178988 8.40399511,21.7354086 C7.63717896,21.4941634 6.90909091,21.229572 6.23522218,20.9416342 Z M10.4023645,32.0622568 C9.34896046,31.4552529 8.89196902,29.1439689 9.24826743,26.1712062 C9.33346922,25.4396887 9.47289034,24.6692607 9.64329393,23.8832685 C11.161435,24.2568093 12.8189971,24.5447471 14.5617611,24.7315175 C15.6074195,26.1712062 16.691806,27.4785992 17.783938,28.6225681 C15.2588667,30.9805447 12.8887077,32.2723735 11.2776192,32.2723735 C10.9290664,32.2645914 10.634733,32.1945525 10.4023645,32.0622568 Z M28.7749694,26.1322957 C29.1390135,29.1050584 28.6897676,31.4163424 27.6441093,32.0311284 C27.4117407,32.1712062 27.1096616,32.233463 26.7533632,32.233463 C25.1500204,32.233463 22.7721158,30.9494163 20.2470444,28.6070039 C21.3314309,27.463035 22.4158174,26.1634241 23.4459845,24.7237354 C25.1964941,24.536965 26.8540563,24.2490272 28.3721973,23.8677043 C28.5503465,24.6536965 28.6897676,25.4085603 28.7749694,26.1322957 Z M31.7570322,20.9416342 C31.0909091,21.229572 30.362821,21.4863813 29.6114961,21.7276265 C29.1699959,20.2023346 28.5890746,18.614786 27.8687322,16.9883268 C28.581329,15.3696498 29.1545047,13.7898833 29.5882593,12.2723735 C30.3550754,12.5136187 31.0831635,12.7782101 31.7647778,13.0661479 C34.5067265,14.2412451 36.2804729,15.7821012 36.2804729,17.0038911 C36.2727273,18.2256809 34.4989808,19.7743191 31.7570322,20.9416342 Z" id="Shape"></path>
        </g>
    </g>
</svg>