<?xml version="1.0" encoding="UTF-8" standalone="no"?>
<svg width="568px" height="509px" viewBox="0 0 568 509" version="1.1" xmlns="http://www.w3.org/2000/svg" xmlns:xlink="http://www.w3.org/1999/xlink">
    <!-- Generator: Sketch 40 (33762) - http://www.bohemiancoding.com/sketch -->
    <title>icon</title>
    <desc>Created with Sketch.</desc>
    <defs></defs>
    <g id="Welcome" stroke="none" stroke-width="1" fill="none" fill-rule="evenodd">
        <g id="icon">
            <g id="react-icons" transform="translate(-36.000000, -65.000000)" stroke-width="24" stroke="#FFFFFF">
                <g id="Group">
                    <g id="Layer_2" transform="translate(320.500000, 320.000000) rotate(15.000000) translate(-320.500000, -320.000000) translate(59.000000, 59.000000)">
                        <path d="M333.987,188.641 C381.615,236.269 419.026,287.349 440.901,332.193 C467.259,386.226 470.997,431.915 452.004,450.907 C432.211,470.7 383.737,466.791 326.273,437.928 C282.828,416.107 234.242,378.809 189.031,333.597 C142.677,287.243 104.081,238.052 82.364,193.781 C54.884,137.758 52.307,90.038 71.721,70.624 C90.559,51.785 134.969,54.568 188.415,80.381 C233.574,102.193 285.895,140.548 333.987,188.641 L333.987,188.641 Z" id="Shape"></path>
                        <path d="M234.931,162.125 C299.983,144.66 362.92,137.771 412.698,141.223 C472.672,145.383 514.118,164.97 521.083,190.911 C528.342,217.944 500.738,257.984 447.029,293.345 C406.421,320.078 349.84,343.533 288.088,360.114 C224.776,377.112 162.881,385.972 113.68,382.667 C51.42,378.486 8.796,356.878 1.676,330.361 C-5.231,304.63 19.364,267.55 68.426,234.147 C109.879,205.923 169.243,179.761 234.931,162.125 L234.931,162.125 Z" id="Shape"></path>
                        <path d="M162.469,234.707 C179.826,169.626 205.289,111.657 233.14,70.257 C266.696,20.375 304.365,-5.751 330.318,1.171 C357.363,8.383 378.267,52.294 382.078,116.486 C384.961,165.019 377.023,225.752 360.547,287.532 C343.655,350.873 320.421,408.921 292.985,449.897 C258.269,501.749 218.262,527.885 191.733,520.81 C165.99,513.945 146.149,474.118 141.712,414.929 C137.963,364.92 144.944,300.424 162.469,234.707 L162.469,234.707 Z" id="Shape"></path>
                    </g>
                </g>
            </g>
            <text id="a" font-family="TrueLies, True Lies" font-size="400" font-weight="normal" fill="#20F42F">
                <tspan x="165.554688" y="364">a</tspan>
            </text>
        </g>
    </g>
</svg>